<?xml version="1.0" encoding="UTF-8"?>
<svg version="1.1" xmlns="http://www.w3.org/2000/svg" width="809" height="213">
<path d="M0 0 C19.14 0 38.28 0 58 0 C58.1209091 32.03643409 58.1209091 32.03643409 58.14648438 45.52734375 C58.16424091 54.81889856 58.1850422 64.11037138 58.22631836 73.40185547 C58.25637364 80.17072996 58.27561097 86.93953752 58.28226548 93.7084769 C58.28615067 97.28717207 58.29517561 100.86567587 58.31719017 104.44430923 C58.3416606 108.45530664 58.34195976 112.46597881 58.34057617 116.47705078 C58.351362 117.64231293 58.36214783 118.80757507 58.3732605 120.00814819 C58.28874857 142.81831968 49.15931972 164.14749273 34 181 C33.06220703 182.06154297 33.06220703 182.06154297 32.10546875 183.14453125 C24.30064586 191.47515273 13.67938061 198.89730359 3 203 C2.01 203 1.02 203 0 203 C0 136.01 0 69.02 0 0 Z " fill="#E31138" transform="translate(127,4)"/>
<path d="M0 0 C21 0 21 0 25.90234375 4.4609375 C27.52929688 7.33203125 27.52929688 7.33203125 28.9375 10.375 C29.46021484 11.34050781 29.98292969 12.30601563 30.52148438 13.30078125 C31.55641361 15.22113562 32.56044032 17.15850945 33.53076172 19.11230469 C35.78770301 23.54818066 38.38473 27.76840835 41 32 C42.6461178 29.45851719 44.2919233 26.91683314 45.9375 24.375 C46.43169434 23.611875 46.92588867 22.84875 47.43505859 22.0625 C49.86405206 18.30952196 52.28887299 14.5540495 54.69921875 10.7890625 C55.10986572 10.14791504 55.5205127 9.50676758 55.94360352 8.84619141 C56.71992286 7.63302198 57.49518356 6.41917433 58.26928711 5.20458984 C60.89012159 1.10987841 60.89012159 1.10987841 62 0 C68.6 0 75.2 0 82 0 C82 26.73 82 53.46 82 81 C76.06 81 70.12 81 64 81 C63.67 64.83 63.34 48.66 63 32 C56.58285352 41.86315813 56.58285352 41.86315813 50.19628906 51.74609375 C49.38717259 52.97728932 48.57702154 54.20780587 47.765625 55.4375 C47.35425293 56.08525391 46.94288086 56.73300781 46.51904297 57.40039062 C45.29003906 59.24609375 45.29003906 59.24609375 43 62 C41.68 62 40.36 62 39 62 C37.27413331 59.90994554 35.87568392 57.94151828 34.453125 55.65625 C34.08364746 55.08616211 33.71416992 54.51607422 33.33349609 53.92871094 C31.95692256 51.79567262 30.60492298 49.64685605 29.25 47.5 C26.1975 42.715 23.145 37.93 20 33 C19.67 48.84 19.34 64.68 19 81 C12.73 81 6.46 81 0 81 C0 54.27 0 27.54 0 0 Z " fill="#030405" transform="translate(236,4)"/>
<path d="M0 0 C23.43 0 46.86 0 71 0 C69.34159627 4.14600934 67.77008365 7.07290697 65.30859375 10.71484375 C64.93599426 11.26952332 64.56339478 11.82420288 64.17950439 12.39569092 C63.36604476 13.60588308 62.55054209 14.8147039 61.73324585 16.02230835 C59.46303026 19.3778259 57.20929758 22.7444066 54.953125 26.109375 C54.47231979 26.82562546 53.99151459 27.54187592 53.49613953 28.27983093 C48.36985453 35.92327462 43.30876911 43.60921767 38.25540161 51.30099487 C36.68658882 53.68888691 35.11670405 56.0760713 33.54663086 58.46313477 C28.68505102 65.85668656 23.83075849 73.25492005 18.9901886 80.6622467 C16.84199477 83.948972 14.69141504 87.23413281 12.54067993 90.51919556 C11.02280607 92.84012797 9.50881203 95.16356025 7.99487305 97.48706055 C7.0801149 98.88473348 6.16516818 100.28228302 5.25 101.6796875 C4.8314827 102.32455612 4.41296539 102.96942474 3.98176575 103.63383484 C3.01419057 105.10687062 2.01112025 106.55650702 1 108 C0.67 108 0.34 108 0 108 C0 72.36 0 36.72 0 0 Z " fill="#E31138" transform="translate(0,4)"/>
<path d="M0 0 C6.27 0 12.54 0 19 0 C19 28.05 19 56.1 19 85 C12.73 85 6.46 85 0 85 C-0.33 83.35 -0.66 81.7 -1 80 C-1.47050781 80.34933594 -1.94101562 80.69867188 -2.42578125 81.05859375 C-3.04839844 81.51363281 -3.67101562 81.96867187 -4.3125 82.4375 C-4.92738281 82.88996094 -5.54226563 83.34242187 -6.17578125 83.80859375 C-11.9646288 87.58931859 -20.36001577 86.45838155 -27 86 C-33.92898967 84.26251921 -39.59636981 78.8967944 -43.2890625 72.91015625 C-48.248181 63.33085181 -48.96958494 50.23275782 -45.875 39.875 C-42.58825354 32.07853166 -37.55493447 26.75330433 -30 23 C-23.09412287 20.69804096 -12.67321014 20.61905078 -6.125 23.875 C-3 26 -3 26 -1 28 C-0.67 18.76 -0.34 9.52 0 0 Z M-26.8125 44.125 C-29.13765119 49.75431341 -29.60030283 54.96564042 -27.875 60.8125 C-25.58339405 64.70823011 -23.10466966 67.94766517 -19 70 C-14.73843416 70.61547295 -10.69874556 70.94993604 -6.85546875 68.80078125 C-2.85482735 65.45708728 -0.29975863 62.50263601 0.3359375 57.1953125 C0.41525118 50.96125735 0.43705771 46.79681914 -4 42 C-4.70125 41.21625 -5.4025 40.4325 -6.125 39.625 C-13.73909884 35.32137892 -21.32407775 37.69029805 -26.8125 44.125 Z " fill="#030405" transform="translate(627,0)"/>
<path d="M0 0 C0.33 0 0.66 0 1 0 C1 37.29 1 74.58 1 113 C-15.74553953 110.60778007 -30.53658464 102.22673539 -43 91 C-43.80050781 90.28199219 -44.60101563 89.56398438 -45.42578125 88.82421875 C-51.49842978 83.09672964 -51.49842978 83.09672964 -52 78 C-51.09332275 75.88067627 -51.09332275 75.88067627 -49.62597656 73.75488281 C-49.08080383 72.94923889 -48.5356311 72.14359497 -47.97393799 71.3135376 C-47.06644806 70.02138336 -47.06644806 70.02138336 -46.140625 68.703125 C-45.52161316 67.79608826 -44.90260132 66.88905151 -44.26483154 65.95452881 C-42.27380556 63.04317644 -40.26269128 60.14640587 -38.25 57.25 C-36.29142963 54.40341527 -34.33710527 51.55394976 -32.38308716 48.70423889 C-31.09674278 46.82892937 -29.80871762 44.95477165 -28.51901245 43.08177185 C-23.23788242 35.39856852 -18.14749529 27.60488372 -13.12402344 19.75164795 C-10.58036824 15.78768398 -7.98100226 11.86062807 -5.375 7.9375 C-4.60349609 6.76477539 -4.60349609 6.76477539 -3.81640625 5.56835938 C-3.32785156 4.83294922 -2.83929688 4.09753906 -2.3359375 3.33984375 C-1.90845215 2.69394287 -1.4809668 2.04804199 -1.04052734 1.38256836 C-0.69715332 0.9263208 -0.3537793 0.47007324 0 0 Z " fill="#E31138" transform="translate(72,99)"/>
<path d="M0 0 C6.27 0 12.54 0 19 0 C19.495 14.355 19.495 14.355 20 29 C22.31 27.02 24.62 25.04 27 23 C33.17622606 20.94125798 41.40159727 20.80588719 47.625 22.87109375 C53.35186951 26.1792286 55.93268449 30.79805348 58 37 C58.08705429 38.58033192 58.11767952 40.16410378 58.11352539 41.74682617 C58.11344986 42.70759567 58.11337433 43.66836517 58.11329651 44.6582489 C58.10813522 45.69270645 58.10297394 46.727164 58.09765625 47.79296875 C58.0962413 48.85413406 58.09482635 49.91529938 58.09336853 51.00862122 C58.08776606 54.40160935 58.07521314 57.79453177 58.0625 61.1875 C58.05748532 63.48632717 58.05292236 65.78515538 58.04882812 68.08398438 C58.03779583 73.72268162 58.02052952 79.36132966 58 85 C52.06 85 46.12 85 40 85 C39.96261719 82.41027344 39.92523438 79.82054688 39.88671875 77.15234375 C39.84042514 74.62695164 39.78922012 72.10170315 39.73754883 69.57641602 C39.70442233 67.82976101 39.67635263 66.08300212 39.65356445 64.33618164 C39.61979119 61.8161213 39.56746653 59.29700248 39.51171875 56.77734375 C39.50532883 56.00414291 39.4989389 55.23094208 39.49235535 54.43431091 C39.35454202 49.28052728 38.41983797 45.57822219 36 41 C32.54968739 39.27484369 28.77283696 39.50322076 25 40 C21.96784325 42.19831364 21.18345602 43.44963194 20 47 C19.84586124 49.87438548 19.74252715 52.72898986 19.68359375 55.60546875 C19.66281265 56.44467361 19.64203156 57.28387848 19.62062073 58.14851379 C19.55525982 60.82809294 19.49630286 63.50776969 19.4375 66.1875 C19.39430198 68.00456737 19.35068727 69.82162488 19.30664062 71.63867188 C19.19880832 76.09234934 19.09963505 80.54610139 19 85 C12.73 85 6.46 85 0 85 C0 56.95 0 28.9 0 0 Z " fill="#030405" transform="translate(403,0)"/>
<path d="M0 0 C1.45998413 -0.02707031 1.45998413 -0.02707031 2.94946289 -0.0546875 C10.14881813 0.00400788 16.40640617 1.29447606 22.08618164 5.95556641 C28.85763724 13.01505922 29.77271528 22.29836585 29.60546875 31.6640625 C29.60122391 32.58214691 29.59697906 33.50023132 29.59260559 34.44613647 C29.57599497 37.33940678 29.53837775 40.2319451 29.5 43.125 C29.48493032 45.10285443 29.47124595 47.08071992 29.45898438 49.05859375 C29.42871844 53.87289537 29.36996582 58.68564163 29.3125 63.5 C23.3725 63.5 17.4325 63.5 11.3125 63.5 C10.8175 61.52 10.8175 61.52 10.3125 59.5 C9.384375 60.139375 8.45625 60.77875 7.5 61.4375 C0.76247812 65.79707298 -7.8761399 65.41049121 -15.6875 64.5 C-21.02321818 62.67860045 -24.60253523 59.18914646 -27.6875 54.5 C-29.61590614 48.71478158 -29.74195508 41.88394001 -27.921875 36.04296875 C-25.40619311 31.41021654 -21.82114874 28.49309913 -17.05078125 26.3359375 C-8.65060901 24.24808981 1.93769268 24.15429498 10.3125 26.5 C9.81483954 22.81731261 9.24964041 20.84971233 6.3125 18.5 C-0.66834518 15.00957741 -12.5023773 17.48312345 -19.6875 19.5 C-20.35970351 17.56441401 -21.02508077 15.62645628 -21.6875 13.6875 C-22.05875 12.60855469 -22.43 11.52960937 -22.8125 10.41796875 C-23.6875 7.5 -23.6875 7.5 -23.6875 4.5 C-15.87032002 0.7343047 -8.56572697 0.06567445 0 0 Z M-10.6875 41.5 C-11.3487339 45.0265808 -11.10693247 46.74102696 -9.375 49.875 C-5.03405866 52.49975523 -0.62387089 52.10789137 4.3125 51.5 C7.39881546 50.2402794 8.70022689 49.34552001 10.625 46.6875 C11.50322993 43.89313203 11.44478191 41.41020204 11.3125 38.5 C7.87617253 37.35455751 5.05818045 37.2602198 1.4375 37.1875 C-0.38394531 37.13142578 -0.38394531 37.13142578 -2.2421875 37.07421875 C-6.28365145 37.57367405 -7.88615297 38.59392971 -10.6875 41.5 Z " fill="#030405" transform="translate(734.6875,21.5)"/>
<path d="M0 0 C1.45998413 -0.02707031 1.45998413 -0.02707031 2.94946289 -0.0546875 C10.14881813 0.00400788 16.40640617 1.29447606 22.08618164 5.95556641 C28.85763724 13.01505922 29.77271528 22.29836585 29.60546875 31.6640625 C29.60122391 32.58214691 29.59697906 33.50023132 29.59260559 34.44613647 C29.57599497 37.33940678 29.53837775 40.2319451 29.5 43.125 C29.48493032 45.10285443 29.47124595 47.08071992 29.45898438 49.05859375 C29.42871844 53.87289537 29.36996582 58.68564163 29.3125 63.5 C23.3725 63.5 17.4325 63.5 11.3125 63.5 C10.8175 61.52 10.8175 61.52 10.3125 59.5 C9.384375 60.139375 8.45625 60.77875 7.5 61.4375 C0.76247812 65.79707298 -7.8761399 65.41049121 -15.6875 64.5 C-21.02321818 62.67860045 -24.60253523 59.18914646 -27.6875 54.5 C-29.61590614 48.71478158 -29.74195508 41.88394001 -27.921875 36.04296875 C-25.40619311 31.41021654 -21.82114874 28.49309913 -17.05078125 26.3359375 C-8.65060901 24.24808981 1.93769268 24.15429498 10.3125 26.5 C9.81483954 22.81731261 9.24964041 20.84971233 6.3125 18.5 C-0.66834518 15.00957741 -12.5023773 17.48312345 -19.6875 19.5 C-20.35970351 17.56441401 -21.02508077 15.62645628 -21.6875 13.6875 C-22.05875 12.60855469 -22.43 11.52960937 -22.8125 10.41796875 C-23.6875 7.5 -23.6875 7.5 -23.6875 4.5 C-15.87032002 0.7343047 -8.56572697 0.06567445 0 0 Z M-10.6875 41.5 C-11.3487339 45.0265808 -11.10693247 46.74102696 -9.375 49.875 C-5.03405866 52.49975523 -0.62387089 52.10789137 4.3125 51.5 C7.39881546 50.2402794 8.70022689 49.34552001 10.625 46.6875 C11.50322993 43.89313203 11.44478191 41.41020204 11.3125 38.5 C7.87617253 37.35455751 5.05818045 37.2602198 1.4375 37.1875 C-0.38394531 37.13142578 -0.38394531 37.13142578 -2.2421875 37.07421875 C-6.28365145 37.57367405 -7.88615297 38.59392971 -10.6875 41.5 Z " fill="#030405" transform="translate(359.6875,21.5)"/>
<path d="M0 0 C5.72686951 3.30813485 8.30768449 7.92695973 10.375 14.12890625 C10.46205429 15.70923817 10.49267952 17.29301003 10.48852539 18.87573242 C10.48844986 19.83650192 10.48837433 20.79727142 10.48829651 21.78715515 C10.48313522 22.8216127 10.47797394 23.85607025 10.47265625 24.921875 C10.4712413 25.98304031 10.46982635 27.04420563 10.46836853 28.13752747 C10.46276606 31.5305156 10.45021314 34.92343802 10.4375 38.31640625 C10.43248532 40.61523342 10.42792236 42.91406163 10.42382812 45.21289062 C10.41279583 50.85158787 10.39552952 56.49023591 10.375 62.12890625 C4.435 62.12890625 -1.505 62.12890625 -7.625 62.12890625 C-7.66238281 59.53917969 -7.69976563 56.94945312 -7.73828125 54.28125 C-7.78457486 51.75585789 -7.83577988 49.2306094 -7.88745117 46.70532227 C-7.92057767 44.95866726 -7.94864737 43.21190837 -7.97143555 41.46508789 C-8.00520881 38.94502755 -8.05753347 36.42590873 -8.11328125 33.90625 C-8.11967117 33.13304916 -8.1260611 32.35984833 -8.13264465 31.56321716 C-8.27045798 26.40943353 -9.20516203 22.70712844 -11.625 18.12890625 C-15.07531261 16.40374994 -18.85216304 16.63212701 -22.625 17.12890625 C-25.65715675 19.32721989 -26.44154398 20.57853819 -27.625 24.12890625 C-27.77913876 27.00329173 -27.88247285 29.85789611 -27.94140625 32.734375 C-27.96218735 33.57357986 -27.98296844 34.41278473 -28.00437927 35.27742004 C-28.06974018 37.95699919 -28.12869714 40.63667594 -28.1875 43.31640625 C-28.23069802 45.13347362 -28.27431273 46.95053113 -28.31835938 48.76757812 C-28.42619168 53.22125559 -28.52536495 57.67500764 -28.625 62.12890625 C-34.895 62.12890625 -41.165 62.12890625 -47.625 62.12890625 C-47.625 41.66890625 -47.625 21.20890625 -47.625 0.12890625 C-41.355 0.12890625 -35.085 0.12890625 -28.625 0.12890625 C-28.295 2.10890625 -27.965 4.08890625 -27.625 6.12890625 C-27.15449219 5.70738281 -26.68398438 5.28585938 -26.19921875 4.8515625 C-25.57660156 4.30371094 -24.95398438 3.75585938 -24.3125 3.19140625 C-23.69761719 2.64613281 -23.08273437 2.10085937 -22.44921875 1.5390625 C-16.96496862 -2.70036854 -6.36493892 -2.11217467 0 0 Z " fill="#030405" transform="translate(557.625,22.87109375)"/>
<path d="M0 0 C0.02888514 3.14581423 0.04675923 6.29159469 0.0625 9.4375 C0.07087891 10.33533203 0.07925781 11.23316406 0.08789062 12.15820312 C0.09111328 13.01220703 0.09433594 13.86621094 0.09765625 14.74609375 C0.10289307 15.53685303 0.10812988 16.3276123 0.11352539 17.14233398 C0 19 0 19 -1 20 C-2.41041225 20.32054824 -3.82871443 20.60674411 -5.25 20.875 C-10.55826184 22.01418808 -10.55826184 22.01418808 -15 25 C-19.5690977 32.96205441 -19.65213304 41.15682782 -19.75 50.125 C-19.77822591 51.47659956 -19.80816233 52.82816452 -19.83984375 54.1796875 C-19.90998207 57.4528089 -19.9573195 60.72640542 -20 64 C-26.27 64 -32.54 64 -39 64 C-39 43.54 -39 23.08 -39 2 C-32.73 2 -26.46 2 -20 2 C-19.67 4.31 -19.34 6.62 -19 9 C-18.5875 8.51789062 -18.175 8.03578125 -17.75 7.5390625 C-12.29735367 1.57523057 -8.19282775 0 0 0 Z " fill="#030405" transform="translate(700,21)"/>
<path d="M0 0 C6.27 0 12.54 0 19 0 C19 20.46 19 40.92 19 62 C12.73 62 6.46 62 0 62 C0 41.54 0 21.08 0 0 Z " fill="#030405" transform="translate(476,23)"/>
<path d="M0 0 C2.64 0 5.28 0 8 0 C8.01458252 0.87213135 8.02916504 1.7442627 8.04418945 2.64282227 C8.10557372 5.90659996 8.17978388 9.16957957 8.26245117 12.43286133 C8.29551994 13.8399778 8.32360704 15.24722116 8.34643555 16.65454102 C8.38031799 18.68820824 8.43264218 20.72073135 8.48828125 22.75390625 C8.51446533 23.97408447 8.54064941 25.1942627 8.56762695 26.45141602 C9.14863327 31.21986707 10.47311432 35.24690903 13.6875 38.9375 C17.81239558 40.83272229 21.94940536 40.44337182 26.3125 39.5 C30.07033851 36.1596991 30.8717725 31.32810389 31.3347168 26.53320312 C31.51790621 22.52072336 31.62195567 18.51565119 31.6875 14.5 C31.72072842 13.09111514 31.75522305 11.68225955 31.79101562 10.2734375 C31.87310738 6.84903869 31.94238811 3.42488356 32 0 C34.64 0 37.28 0 40 0 C40.07442006 5.01705721 40.12872908 10.03378972 40.16479492 15.05126953 C40.17983738 16.75640463 40.20027653 18.46150132 40.22631836 20.16650391 C40.26290284 22.62412012 40.27977173 25.08122269 40.29296875 27.5390625 C40.30845261 28.29555084 40.32393646 29.05203918 40.33988953 29.83145142 C40.34165523 35.44426477 39.20632206 39.60814632 35.28125 43.86328125 C34.6934375 44.34152344 34.105625 44.81976563 33.5 45.3125 C32.61828125 46.04919922 32.61828125 46.04919922 31.71875 46.80078125 C26.4485741 50.47792671 19.10026757 49.47964452 13 49 C8.19077114 47.71509153 5.65565553 45.82377234 2.5625 41.9375 C-0.00121649 37.117713 -0.13332496 33.16699211 -0.09765625 27.83203125 C-0.0962413 27.03721848 -0.09482635 26.2424057 -0.09336853 25.42350769 C-0.08777378 22.88646675 -0.07522228 20.34951425 -0.0625 17.8125 C-0.05748432 16.09179815 -0.05292153 14.37109492 -0.04882812 12.65039062 C-0.03780607 8.4335597 -0.02054506 4.21679484 0 0 Z " fill="#030405" transform="translate(233,109)"/>
<path d="M0 0 C4.94586526 2.29629459 7.30760518 5.31323865 10 10 C11 13 11 13 11 22 C2.75 22 -5.5 22 -14 22 C-11.69513278 27.62794262 -11.69513278 27.62794262 -9.25 29.4375 C-5.94025025 30.26493744 -3.30412844 29.72090075 0 29 C0.99 28.34 1.98 27.68 3 27 C5 27.125 5 27.125 7 28 C8.75 30.0625 8.75 30.0625 10 32 C3.91987318 37.26944325 0.15760821 38.37761905 -7.98828125 38.26953125 C-13.1423818 37.80826933 -15.88934488 36.19141998 -19.53125 32.41015625 C-24.00860259 26.52741243 -23.94230531 20.11173816 -23 13 C-21.57861626 7.78268556 -18.77558297 3.76845999 -14.19140625 0.84765625 C-9.56439685 -0.94211387 -4.84264608 -0.72067195 0 0 Z M-10.8125 8.625 C-13.47020385 11.097394 -13.47020385 11.097394 -14 16 C-8.72 16 -3.44 16 2 16 C1.26011158 10.95515397 1.26011158 10.95515397 -2 8 C-5.82376399 6.75312044 -7.2872055 6.58816318 -10.8125 8.625 Z " fill="#030405" transform="translate(403,120)"/>
<path d="M0 0 C2.97 0 5.94 0 9 0 C12.23244241 7.59094058 15.25792848 15.21803166 18 23 C21.23244241 15.40905942 24.25792848 7.78196834 27 0 C29.97 0 32.94 0 36 0 C35.25460668 4.69528129 33.66435799 8.97029835 32.015625 13.40625 C31.71815369 14.20857056 31.42068237 15.01089111 31.11419678 15.83752441 C30.48431711 17.5294081 29.85212608 19.22043285 29.21777344 20.91064453 C28.25495936 23.48673083 27.31105203 26.06926508 26.3671875 28.65234375 C25.75116147 30.29991391 25.13401068 31.94706404 24.515625 33.59375 C24.23833557 34.36158813 23.96104614 35.12942627 23.675354 35.92053223 C21.88553932 40.60555489 19.97940842 43.7457036 16 47 C13.2109375 47.5234375 13.2109375 47.5234375 10.375 47.375 C9.43398438 47.34148437 8.49296875 47.30796875 7.5234375 47.2734375 C5 47 5 47 2 46 C2.52268466 43.23723823 3.10869587 40.6739124 4 38 C6.31 38.33 8.62 38.66 11 39 C12.29423321 37.38456323 12.29423321 37.38456323 13 35 C12.17652334 31.73344064 12.17652334 31.73344064 10.60546875 28.22265625 C10.33865799 27.57429306 10.07184723 26.92592987 9.79695129 26.25791931 C8.9415978 24.18640851 8.06562573 22.12444793 7.1875 20.0625 C6.32394802 18.00274185 5.4648594 15.94124914 4.61018372 13.87779236 C3.8307263 12.00106638 3.03907987 10.12941667 2.24682617 8.25805664 C1.17971349 5.46960573 0.4624693 2.9389178 0 0 Z " fill="#030405" transform="translate(526,121)"/>
<path d="M0 0 C3.61884168 1.89662185 5.68786858 4.06360575 7 8 C7.08358958 10.21089945 7.10731764 12.42426078 7.09765625 14.63671875 C7.09443359 15.93544922 7.09121094 17.23417969 7.08789062 18.57226562 C7.07953531 19.94401108 7.07107037 21.31575587 7.0625 22.6875 C7.05748335 24.07096195 7.05292073 25.45442563 7.04882812 26.83789062 C7.03702529 30.22530395 7.02056019 33.61263033 7 37 C4.36 37 1.72 37 -1 37 C-1.01981934 36.35973877 -1.03963867 35.71947754 -1.06005859 35.05981445 C-1.15563601 32.1436472 -1.26518214 29.22816428 -1.375 26.3125 C-1.4059375 25.30509766 -1.436875 24.29769531 -1.46875 23.25976562 C-1.50742187 22.28330078 -1.54609375 21.30683594 -1.5859375 20.30078125 C-1.63306885 18.95753784 -1.63306885 18.95753784 -1.68115234 17.5871582 C-2.062695 14.49128722 -2.72604215 11.27395785 -5 9 C-9.16990664 8.57218327 -9.16990664 8.57218327 -12.8125 10.3125 C-15.01679973 13.44492593 -15.16630977 16.39594143 -15.31640625 20.10546875 C-15.35830078 21.08837891 -15.40019531 22.07128906 -15.44335938 23.08398438 C-15.48267578 24.10814453 -15.52199219 25.13230469 -15.5625 26.1875 C-15.60568359 27.22326172 -15.64886719 28.25902344 -15.69335938 29.32617188 C-15.79944366 31.8839819 -15.90150146 34.44188845 -16 37 C-18.64 37 -21.28 37 -24 37 C-24 25.12 -24 13.24 -24 1 C-21.36 1 -18.72 1 -16 1 C-15.67 1.66 -15.34 2.32 -15 3 C-14.38125 2.505 -13.7625 2.01 -13.125 1.5 C-8.71524256 -0.61668357 -4.80893946 -0.8373393 0 0 Z " fill="#030405" transform="translate(307,120)"/>
<path d="M0 0 C5.53125 2.0625 5.53125 2.0625 7 5 C5.5625 7.625 5.5625 7.625 4 10 C-0.75 9.125 -0.75 9.125 -3 8 C-4.37342831 7.9310528 -5.75002102 7.91532292 -7.125 7.9375 C-8.40375 7.958125 -9.6825 7.97875 -11 8 C-11.03257735 9.93012025 -11.03257735 9.93012025 -10 12 C-7.68682494 13.18320975 -5.5489819 14.11943173 -3.125 15 C4.93305116 17.96275821 4.93305116 17.96275821 7 22 C7.66367922 25.40135602 7.6069482 28.59005468 7 32 C4.80977082 34.82424288 3.16982793 36.41508603 0 38 C-7.80936676 38.73287903 -13.30456831 38.12026565 -20 34 C-20 30 -20 30 -18 27 C-17.443125 27.2165625 -16.88625 27.433125 -16.3125 27.65625 C-10.94811407 29.61352595 -6.70147617 30.31098961 -1 30 C-1.57828727 27.53826391 -1.57828727 27.53826391 -3 25 C-5.69819602 23.45913174 -5.69819602 23.45913174 -8.875 22.4375 C-13.17124846 20.91217346 -16.18281462 19.67632702 -19 16 C-19.8024854 12.59635503 -19.65987953 9.42693738 -19 6 C-13.6474918 -0.90191847 -8.24069495 -0.62315555 0 0 Z " fill="#030405" transform="translate(468,120)"/>
<path d="M0 0 C2.97 0 5.94 0 9 0 C12.23283753 7.59186846 15.24225135 15.22327034 18 23 C18.3556604 22.06148193 18.3556604 22.06148193 18.71850586 21.10400391 C19.7904212 18.27725731 20.86394047 15.45112254 21.9375 12.625 C22.31068359 11.64015625 22.68386719 10.6553125 23.06835938 9.640625 C23.42607422 8.69960937 23.78378906 7.75859375 24.15234375 6.7890625 C24.48226318 5.91975098 24.81218262 5.05043945 25.15209961 4.15478516 C26 2 26 2 27 0 C29.97 0 32.94 0 36 0 C35.31297613 4.26560996 33.91881642 8.01142809 32.3125 12.015625 C31.91865112 13.0002774 31.91865112 13.0002774 31.5168457 14.00482178 C30.96413688 15.38392474 30.40932971 16.76218839 29.85253906 18.13964844 C28.997951 20.25507203 28.15083896 22.37337718 27.3046875 24.4921875 C23.14226353 34.85773647 23.14226353 34.85773647 22 36 C19.32941149 36.14115161 16.67567762 36.04247107 14 36 C10.46347371 29.23267516 7.5774769 22.27674077 4.75 15.1875 C4.29109375 14.05634766 3.8321875 12.92519531 3.359375 11.75976562 C2.92625 10.67759766 2.493125 9.59542969 2.046875 8.48046875 C1.65338867 7.49973389 1.25990234 6.51899902 0.85449219 5.50854492 C0 3 0 3 0 0 Z " fill="#030405" transform="translate(340,121)"/>
<path d="M0 0 C2.64 0 5.28 0 8 0 C8 3.3 8 6.6 8 10 C11.3 10 14.6 10 18 10 C18 12.31 18 14.62 18 17 C14.7 17 11.4 17 8 17 C8.14043069 20.12532985 8.28709406 23.25014818 8.4375 26.375 C8.47681641 27.26445312 8.51613281 28.15390625 8.55664062 29.0703125 C8.61948242 30.34648437 8.61948242 30.34648437 8.68359375 31.6484375 C8.72025146 32.43395996 8.75690918 33.21948242 8.79467773 34.02880859 C8.890891 36.07523496 8.890891 36.07523496 10 38 C12.64 38 15.28 38 18 38 C18 40.64 18 43.28 18 46 C15.16921909 46.94359364 13.0809686 47.25819881 10.125 47.375 C9.28195312 47.42398438 8.43890625 47.47296875 7.5703125 47.5234375 C3.50492597 46.69553204 2.32187968 45.46013686 0 42 C-0.61095352 37.71268685 -0.4697832 33.50673852 -0.3125 29.1875 C-0.28994141 28.01767578 -0.26738281 26.84785156 -0.24414062 25.64257812 C-0.18532091 22.76041231 -0.10317141 19.88086319 0 17 C-1.65 17 -3.3 17 -5 17 C-5 14.69 -5 12.38 -5 10 C-3.35 10 -1.7 10 0 10 C0 6.7 0 3.4 0 0 Z " fill="#030405" transform="translate(504,111)"/>
<path d="M0 0 C0 2.97 0 5.94 0 9 C-1.258125 9.391875 -2.51625 9.78375 -3.8125 10.1875 C-6.8422942 11.32233458 -7.86627698 11.83176781 -9.9375 14.4375 C-11.95774905 19.30986536 -12.28059497 24.01858214 -12.5625 29.25 C-12.60568359 29.99507812 -12.64886719 30.74015625 -12.69335938 31.5078125 C-12.79896725 33.338349 -12.89994201 35.16915176 -13 37 C-15.64 37 -18.28 37 -21 37 C-21 25.12 -21 13.24 -21 1 C-18.36 1 -15.72 1 -13 1 C-12.67 2.32 -12.34 3.64 -12 5 C-11.13375 4.175 -10.2675 3.35 -9.375 2.5 C-6.25207583 -0.13961448 -4.12269101 -0.49079655 0 0 Z " fill="#030405" transform="translate(444,120)"/>
<path d="M0 0 C6.27 0 12.54 0 19 0 C19 5.28 19 10.56 19 16 C12.73 16 6.46 16 0 16 C0 10.72 0 5.44 0 0 Z " fill="#030405" transform="translate(476,0)"/>
<path d="M0 0 C2.64 0 5.28 0 8 0 C8 11.88 8 23.76 8 36 C5.36 36 2.72 36 0 36 C0 24.12 0 12.24 0 0 Z " fill="#030405" transform="translate(484,121)"/>
<path d="M0 0 C2.64 0 5.28 0 8 0 C8 11.88 8 23.76 8 36 C5.36 36 2.72 36 0 36 C0 24.12 0 12.24 0 0 Z " fill="#030405" transform="translate(325,121)"/>
<path d="M0 0 C1.65 0 3.3 0 5 0 C6.97610386 2.04424538 8 3.1176825 8 6 C8.66 6 9.32 6 10 6 C10.309375 5.195625 10.61875 4.39125 10.9375 3.5625 C12 1 12 1 13 0 C14.65 0 16.3 0 18 0 C18 5.94 18 11.88 18 18 C16.68 18 15.36 18 14 18 C13.67 15.03 13.34 12.06 13 9 C11.515 11.475 11.515 11.475 10 14 C7 13 7 13 5 10 C4.67 12.64 4.34 15.28 4 18 C2.68 18 1.36 18 0 18 C0 12.06 0 6.12 0 0 Z " fill="#030405" transform="translate(791,11)"/>
<path d="M0 0 C0.66 0 1.32 0 2 0 C2.99 0 3.98 0 5 0 C5.1083667 2.7302389 5.18746694 5.45614543 5.25 8.1875 C5.30027344 9.34088867 5.30027344 9.34088867 5.3515625 10.51757812 C5.41861103 14.42315491 5.25568218 16.54564983 3.30078125 20.01953125 C0.60023953 22.34410621 -0.54757091 22.62723725 -4.0625 22.5 C-4.91972656 22.4896875 -5.77695312 22.479375 -6.66015625 22.46875 C-9.36616443 21.92664485 -10.2873699 21.11130793 -12 19 C-8.63181477 17.87727159 -6.42845528 18.29672712 -3 19 C-2.01 18.67 -1.02 18.34 0 18 C0.33 17.01 0.66 16.02 1 15 C0.01 15.495 0.01 15.495 -1 16 C-4.79877599 16.35173852 -7.14360153 16.52701444 -10.4375 14.5 C-12.64099302 10.97441116 -12.79669284 8.04985528 -12 4 C-8.97890144 -1.03516427 -5.32813092 -0.34375038 0 0 Z M-7 3 C-9.35014158 5.837578 -9.35014158 5.837578 -8.6875 9.125 C-8.29355679 11.88086422 -8.29355679 11.88086422 -7 13 C-4.0842309 13.41702122 -4.0842309 13.41702122 -1 13 C1.14782671 11.44202118 1.14782671 11.44202118 2 9 C1.33228817 6.60736593 0.77902615 4.77902615 -1 3 C-3.95804573 2.66659529 -3.95804573 2.66659529 -7 3 Z " fill="#626161" transform="translate(590,191)"/>
<path d="M0 0 C0.66 0 1.32 0 2 0 C2.99 0 3.98 0 5 0 C5.1083667 2.7302389 5.18746694 5.45614543 5.25 8.1875 C5.30027344 9.34088867 5.30027344 9.34088867 5.3515625 10.51757812 C5.41861103 14.42315491 5.25568218 16.54564983 3.30078125 20.01953125 C0.60023953 22.34410621 -0.54757091 22.62723725 -4.0625 22.5 C-4.91972656 22.4896875 -5.77695312 22.479375 -6.66015625 22.46875 C-9.36616443 21.92664485 -10.2873699 21.11130793 -12 19 C-8.63181477 17.87727159 -6.42845528 18.29672712 -3 19 C-2.01 18.67 -1.02 18.34 0 18 C0.33 17.01 0.66 16.02 1 15 C0.01 15.495 0.01 15.495 -1 16 C-4.79877599 16.35173852 -7.14360153 16.52701444 -10.4375 14.5 C-12.64099302 10.97441116 -12.79669284 8.04985528 -12 4 C-8.97890144 -1.03516427 -5.32813092 -0.34375038 0 0 Z M-7 3 C-9.35014158 5.837578 -9.35014158 5.837578 -8.6875 9.125 C-8.29355679 11.88086422 -8.29355679 11.88086422 -7 13 C-4.0842309 13.41702122 -4.0842309 13.41702122 -1 13 C1.14782671 11.44202118 1.14782671 11.44202118 2 9 C1.33228817 6.60736593 0.77902615 4.77902615 -1 3 C-3.95804573 2.66659529 -3.95804573 2.66659529 -7 3 Z " fill="#626161" transform="translate(550,191)"/>
<path d="M0 0 C1.43859375 -0.00773438 1.43859375 -0.00773438 2.90625 -0.015625 C5.5 0.25 5.5 0.25 8.5 2.25 C8.17 3.24 7.84 4.23 7.5 5.25 C6.984375 5.085 6.46875 4.92 5.9375 4.75 C1.543741 3.8487161 -2.0527477 3.32227417 -5.9375 5.8125 C-8.10396028 9.19217804 -8.06288002 11.30983987 -7.5 15.25 C-6.08333333 17.83333333 -6.08333333 17.83333333 -3.5 19.25 C1.15698348 19.66973199 1.15698348 19.66973199 5.5 18.25 C6.15213292 16.22536745 6.15213292 16.22536745 6.5 14.25 C4.19 14.25 1.88 14.25 -0.5 14.25 C-0.5 13.26 -0.5 12.27 -0.5 11.25 C2.8 11.25 6.1 11.25 9.5 11.25 C9.890625 17.98828125 9.890625 17.98828125 9.5 20.25 C7.35672211 22.50818556 5.95213794 23.1752052 2.87890625 23.68359375 C-4.75968635 23.69418819 -4.75968635 23.69418819 -8.625 21.375 C-11.96940355 17.58467598 -11.77213904 14.62926541 -11.72265625 9.73046875 C-11.43708398 6.54909345 -10.5542284 4.68464107 -8.5 2.25 C-5.14802157 0.01534771 -3.92208754 -0.02108649 0 0 Z " fill="#626161" transform="translate(246.5,184.75)"/>
<path d="M0 0 C0.99 0 1.98 0 3 0 C3.33 2.64 3.66 5.28 4 8 C4.66 7.67 5.32 7.34 6 7 C10.33327174 6.50944093 12.32000344 6.52255561 15.9375 9.0625 C18 12 18 12 18.625 15.5 C18 19 18 19 16 21.9375 C11.94288886 24.72676391 9.8470698 24.3973008 5 24 C4.34 24 3.68 24 3 24 C2.01 24 1.02 24 0 24 C0 16.08 0 8.16 0 0 Z M4.0625 11.6875 C2.71766375 14.61449654 2.96884338 15.98584989 4 19 C5.88138759 21.28930236 5.88138759 21.28930236 8.9375 21.375 C12.03727981 21.28568869 12.03727981 21.28568869 13.9375 19.3125 C15.28233625 16.38550346 15.03115662 15.01415011 14 12 C12.11861241 9.71069764 12.11861241 9.71069764 9.0625 9.625 C5.96272019 9.71431131 5.96272019 9.71431131 4.0625 11.6875 Z " fill="#626161" transform="translate(289,184)"/>
<path d="M0 0 C5.61 0 11.22 0 17 0 C17 0.99 17 1.98 17 3 C12.38 3 7.76 3 3 3 C3 5.31 3 7.62 3 10 C6.96 10 10.92 10 15 10 C15 10.99 15 11.98 15 13 C11.04 13 7.08 13 3 13 C3 15.31 3 17.62 3 20 C7.62 20 12.24 20 17 20 C17 20.99 17 21.98 17 23 C11.39 23 5.78 23 0 23 C0 15.41 0 7.82 0 0 Z " fill="#626161" transform="translate(498,185)"/>
<path d="M0 0 C0.99 0 1.98 0 3 0 C3 7.92 3 15.84 3 24 C1.68 23.67 0.36 23.34 -1 23 C-1.33 23.33 -1.66 23.66 -2 24 C-9.00187149 24.57392389 -9.00187149 24.57392389 -12.5 22.5625 C-14.73570183 18.74317604 -14.76004105 15.31481639 -14 11 C-12.5 8.4375 -12.5 8.4375 -10 7 C-7.19668083 6.629853 -4.85753764 6.7657756 -2 7 C-1.67 7.33 -1.34 7.66 -1 8 C-0.67 5.36 -0.34 2.72 0 0 Z M-9 10 C-11.56687367 13.8503105 -10.83288724 15.58569763 -10 20 C-7.69 20.33 -5.38 20.66 -3 21 C-1.33153266 19.30504044 -1.33153266 19.30504044 0 17 C-0.24074022 13.62963689 -0.58798021 12.41201979 -3 10 C-6 9.58333333 -6 9.58333333 -9 10 Z " fill="#626161" transform="translate(720,184)"/>
<path d="M0 0 C0.99 0 1.98 0 3 0 C3 7.92 3 15.84 3 24 C1.68 23.67 0.36 23.34 -1 23 C-1.33 23.33 -1.66 23.66 -2 24 C-9.00187149 24.57392389 -9.00187149 24.57392389 -12.5 22.5625 C-14.73570183 18.74317604 -14.76004105 15.31481639 -14 11 C-12.5 8.4375 -12.5 8.4375 -10 7 C-7.19668083 6.629853 -4.85753764 6.7657756 -2 7 C-1.67 7.33 -1.34 7.66 -1 8 C-0.67 5.36 -0.34 2.72 0 0 Z M-9 10 C-11.56687367 13.8503105 -10.83288724 15.58569763 -10 20 C-7.69 20.33 -5.38 20.66 -3 21 C-1.33153266 19.30504044 -1.33153266 19.30504044 0 17 C-0.24074022 13.62963689 -0.58798021 12.41201979 -3 10 C-6 9.58333333 -6 9.58333333 -9 10 Z " fill="#626161" transform="translate(632,184)"/>
<path d="M0 0 C1.9375 1.0625 1.9375 1.0625 3 3 C3.6875 6.6875 3.6875 6.6875 4 10 C-0.29 10 -4.58 10 -9 10 C-8.01 11.485 -8.01 11.485 -7 13 C-3.58410104 13.29071481 -1.26157733 13.08719244 2 12 C2 13.32 2 14.64 2 16 C-1.23473957 17.61736978 -4.50330416 17.56721211 -8 17 C-11.0625 15.0625 -11.0625 15.0625 -13 12 C-13.40845614 7.8352061 -12.99113866 4.30830303 -10.4375 0.9375 C-6.71800757 -0.49307401 -3.9902057 -0.38001959 0 0 Z M-5 2 C-7.25 3.16666667 -7.25 3.16666667 -9 5 C-9 5.99 -9 6.98 -9 8 C-5.7 8 -2.4 8 1 8 C-1.03802135 3.93975679 -1.03802135 3.93975679 -5 2 Z " fill="#626161" transform="translate(740,191)"/>
<path d="M0 0 C1.9375 1.0625 1.9375 1.0625 3 3 C3.6875 6.6875 3.6875 6.6875 4 10 C-0.29 10 -4.58 10 -9 10 C-8.01 11.485 -8.01 11.485 -7 13 C-3.58410104 13.29071481 -1.26157733 13.08719244 2 12 C2 13.32 2 14.64 2 16 C-1.23473957 17.61736978 -4.50330416 17.56721211 -8 17 C-11.0625 15.0625 -11.0625 15.0625 -13 12 C-13.40845614 7.8352061 -12.99113866 4.30830303 -10.4375 0.9375 C-6.71800757 -0.49307401 -3.9902057 -0.38001959 0 0 Z M-5 2 C-7.25 3.16666667 -7.25 3.16666667 -9 5 C-9 5.99 -9 6.98 -9 8 C-5.7 8 -2.4 8 1 8 C-1.03802135 3.93975679 -1.03802135 3.93975679 -5 2 Z " fill="#626161" transform="translate(681,191)"/>
<path d="M0 0 C1.9375 1.0625 1.9375 1.0625 3 3 C3.6875 6.6875 3.6875 6.6875 4 10 C-0.29 10 -4.58 10 -9 10 C-8.01 11.485 -8.01 11.485 -7 13 C-3.58410104 13.29071481 -1.26157733 13.08719244 2 12 C2 13.32 2 14.64 2 16 C-1.23473957 17.61736978 -4.50330416 17.56721211 -8 17 C-11.0625 15.0625 -11.0625 15.0625 -13 12 C-13.40845614 7.8352061 -12.99113866 4.30830303 -10.4375 0.9375 C-6.71800757 -0.49307401 -3.9902057 -0.38001959 0 0 Z M-5 2 C-7.25 3.16666667 -7.25 3.16666667 -9 5 C-9 5.99 -9 6.98 -9 8 C-5.7 8 -2.4 8 1 8 C-1.03802135 3.93975679 -1.03802135 3.93975679 -5 2 Z " fill="#626161" transform="translate(612,191)"/>
<path d="M0 0 C1.9375 1.0625 1.9375 1.0625 3 3 C3.6875 6.6875 3.6875 6.6875 4 10 C-0.29 10 -4.58 10 -9 10 C-8.01 11.485 -8.01 11.485 -7 13 C-3.58410104 13.29071481 -1.26157733 13.08719244 2 12 C2 13.32 2 14.64 2 16 C-1.23473957 17.61736978 -4.50330416 17.56721211 -8 17 C-11.0625 15.0625 -11.0625 15.0625 -13 12 C-13.40845614 7.8352061 -12.99113866 4.30830303 -10.4375 0.9375 C-6.71800757 -0.49307401 -3.9902057 -0.38001959 0 0 Z M-5 2 C-7.25 3.16666667 -7.25 3.16666667 -9 5 C-9 5.99 -9 6.98 -9 8 C-5.7 8 -2.4 8 1 8 C-1.03802135 3.93975679 -1.03802135 3.93975679 -5 2 Z " fill="#626161" transform="translate(444,191)"/>
<path d="M0 0 C0.99 0 1.98 0 3 0 C3.33 4.62 3.66 9.24 4 14 C5.0725 12.824375 6.145 11.64875 7.25 10.4375 C9.078125 8.43359375 9.078125 8.43359375 11 7 C13.234375 7.28515625 13.234375 7.28515625 15 8 C13.35 9.98 11.7 11.96 10 14 C10.61875 15.093125 11.2375 16.18625 11.875 17.3125 C12.22304688 17.92738281 12.57109375 18.54226562 12.9296875 19.17578125 C13.89428581 20.81982289 14.94267059 22.41400588 16 24 C13.75 24.375 13.75 24.375 11 24 C8.6875 21 8.6875 21 7 18 C3.87525373 19.63473516 3.87525373 19.63473516 3.3125 22.125 C3.209375 22.74375 3.10625 23.3625 3 24 C2.01 24 1.02 24 0 24 C0 16.08 0 8.16 0 0 Z " fill="#626161" transform="translate(415,184)"/>
<path d="M0 0 C3 1.4375 3 1.4375 5 4 C5.70493705 7.14910406 5.70493705 9.85089594 5 13 C2.8773952 15.7195874 1.44365431 16.75414996 -1.97265625 17.3359375 C-5.04409286 17.48520358 -7.5934627 17.16678453 -10.4375 16 C-12.8131275 12.95919679 -13.20488011 9.75369635 -13 6 C-10.21784223 -0.22673406 -6.51168411 -0.84664344 0 0 Z M-9 4.625 C-10.31015527 7.08491658 -10.31015527 7.08491658 -9.25 10.1875 C-8.26699069 12.852669 -8.26699069 12.852669 -7 14 C-2.85160255 14.38880902 -2.85160255 14.38880902 0.875 12.8125 C2.40659584 10.34492892 2.42822025 8.85480169 2 6 C0.98029682 4.06345052 0.98029682 4.06345052 -1 3 C-4.50825 2.48838021 -6.20570698 2.35463692 -9 4.625 Z " fill="#626161" transform="translate(280,191)"/>
<path d="M0 0 C0.99 0 1.98 0 3 0 C3.33 2.64 3.66 5.28 4 8 C4.33 7.67 4.66 7.34 5 7 C11.25493999 6.53667111 11.25493999 6.53667111 13.71484375 8.06640625 C15.69489406 11.04550929 15.28442175 13.66600966 15.1875 17.1875 C15.16042969 18.45980469 15.13335937 19.73210937 15.10546875 21.04296875 C15.07066406 22.01878906 15.03585937 22.99460938 15 24 C14.01 24 13.02 24 12 24 C11.93941406 23.14535156 11.87882812 22.29070312 11.81640625 21.41015625 C11.73261719 20.30542969 11.64882813 19.20070312 11.5625 18.0625 C11.48128906 16.96035156 11.40007812 15.85820312 11.31640625 14.72265625 C11.29581916 12.08890097 11.29581916 12.08890097 10 11 C8.35 11 6.7 11 5 11 C4.34 15.29 3.68 19.58 3 24 C2.01 24 1.02 24 0 24 C0 16.08 0 8.16 0 0 Z " fill="#626161" transform="translate(367,184)"/>
<path d="M0 0 C1.43655854 -0.08131463 2.8744483 -0.13933559 4.3125 -0.1875 C5.51326172 -0.23970703 5.51326172 -0.23970703 6.73828125 -0.29296875 C9 0 9 0 10.78125 1.0625 C12.66475812 4.05679497 12.28345796 6.70102754 12.1875 10.1875 C12.16042969 11.45980469 12.13335938 12.73210937 12.10546875 14.04296875 C12.07066406 15.01878906 12.03585937 15.99460938 12 17 C10.06318839 17.08107583 8.1254066 17.13922475 6.1875 17.1875 C5.10855469 17.22230469 4.02960937 17.25710937 2.91796875 17.29296875 C0 17 0 17 -1.8984375 15.68359375 C-3 14 -3 14 -2.8125 10.875 C-2.544375 9.92625 -2.27625 8.9775 -2 8 C0.40545638 6.79727181 1.94996953 6.89928528 4.625 6.9375 C5.85089844 6.95103516 5.85089844 6.95103516 7.1015625 6.96484375 C8.04128906 6.98224609 8.04128906 6.98224609 9 7 C8.67 6.01 8.34 5.02 8 4 C5.03 4 2.06 4 -1 4 C-0.67 2.68 -0.34 1.36 0 0 Z M1.1875 10.5 C0.795625 10.995 0.40375 11.49 0 12 C0.99 12.99 1.98 13.98 3 15 C4.98 14.34 6.96 13.68 9 13 C8.67 11.68 8.34 10.36 8 9 C4.28263359 8.65099442 4.28263359 8.65099442 1.1875 10.5 Z " fill="#626161" transform="translate(690,191)"/>
<path d="M0 0 C1.43655854 -0.08131463 2.8744483 -0.13933559 4.3125 -0.1875 C5.51326172 -0.23970703 5.51326172 -0.23970703 6.73828125 -0.29296875 C9 0 9 0 10.78125 1.0625 C12.66475812 4.05679497 12.28345796 6.70102754 12.1875 10.1875 C12.16042969 11.45980469 12.13335938 12.73210937 12.10546875 14.04296875 C12.07066406 15.01878906 12.03585937 15.99460938 12 17 C10.06318839 17.08107583 8.1254066 17.13922475 6.1875 17.1875 C5.10855469 17.22230469 4.02960937 17.25710937 2.91796875 17.29296875 C0 17 0 17 -1.8984375 15.68359375 C-3 14 -3 14 -2.8125 10.875 C-2.544375 9.92625 -2.27625 8.9775 -2 8 C0.40545638 6.79727181 1.94996953 6.89928528 4.625 6.9375 C5.85089844 6.95103516 5.85089844 6.95103516 7.1015625 6.96484375 C8.04128906 6.98224609 8.04128906 6.98224609 9 7 C8.67 6.01 8.34 5.02 8 4 C5.03 4 2.06 4 -1 4 C-0.67 2.68 -0.34 1.36 0 0 Z M1.1875 10.5 C0.795625 10.995 0.40375 11.49 0 12 C0.99 12.99 1.98 13.98 3 15 C4.98 14.34 6.96 13.68 9 13 C8.67 11.68 8.34 10.36 8 9 C4.28263359 8.65099442 4.28263359 8.65099442 1.1875 10.5 Z " fill="#626161" transform="translate(562,191)"/>
<path d="M0 0 C1.43655854 -0.08131463 2.8744483 -0.13933559 4.3125 -0.1875 C5.51326172 -0.23970703 5.51326172 -0.23970703 6.73828125 -0.29296875 C9 0 9 0 10.78125 1.0625 C12.66475812 4.05679497 12.28345796 6.70102754 12.1875 10.1875 C12.16042969 11.45980469 12.13335937 12.73210937 12.10546875 14.04296875 C12.07066406 15.01878906 12.03585937 15.99460938 12 17 C10.06318839 17.08107583 8.1254066 17.13922475 6.1875 17.1875 C5.10855469 17.22230469 4.02960938 17.25710937 2.91796875 17.29296875 C0 17 0 17 -1.8984375 15.68359375 C-3 14 -3 14 -2.8125 10.875 C-2.544375 9.92625 -2.27625 8.9775 -2 8 C0.40545638 6.79727181 1.94996953 6.89928528 4.625 6.9375 C5.85089844 6.95103516 5.85089844 6.95103516 7.1015625 6.96484375 C8.04128906 6.98224609 8.04128906 6.98224609 9 7 C8.67 6.01 8.34 5.02 8 4 C5.03 4 2.06 4 -1 4 C-0.67 2.68 -0.34 1.36 0 0 Z M1.1875 10.5 C0.795625 10.995 0.40375 11.49 0 12 C0.99 12.99 1.98 13.98 3 15 C4.98 14.34 6.96 13.68 9 13 C8.67 11.68 8.34 10.36 8 9 C4.28263359 8.65099442 4.28263359 8.65099442 1.1875 10.5 Z " fill="#626161" transform="translate(312,191)"/>
<path d="M0 0 C5.28 0 10.56 0 16 0 C16 1.32 16 2.64 16 4 C14.02 4 12.04 4 10 4 C10 8.62 10 13.24 10 18 C8.35 18 6.7 18 5 18 C5 13.38 5 8.76 5 4 C3.35 4 1.7 4 0 4 C0 2.68 0 1.36 0 0 Z " fill="#030405" transform="translate(772,11)"/>
<path d="M0 0 C1.32 0.33 2.64 0.66 4 1 C4.33 0.67 4.66 0.34 5 0 C11.25493999 -0.46332889 11.25493999 -0.46332889 13.71484375 1.06640625 C15.69489406 4.04550929 15.28442175 6.66600966 15.1875 10.1875 C15.16042969 11.45980469 15.13335938 12.73210937 15.10546875 14.04296875 C15.07066406 15.01878906 15.03585937 15.99460938 15 17 C14.01 17 13.02 17 12 17 C11.93941406 16.14535156 11.87882813 15.29070312 11.81640625 14.41015625 C11.73261719 13.30542969 11.64882813 12.20070312 11.5625 11.0625 C11.48128906 9.96035156 11.40007813 8.85820312 11.31640625 7.72265625 C11.29581916 5.08890097 11.29581916 5.08890097 10 4 C8.35 4 6.7 4 5 4 C4.34 8.29 3.68 12.58 3 17 C2.01 17 1.02 17 0 17 C0 11.39 0 5.78 0 0 Z " fill="#626161" transform="translate(519,191)"/>
<path d="M0 0 C1.32 0.33 2.64 0.66 4 1 C4.33 0.67 4.66 0.34 5 0 C11.25493999 -0.46332889 11.25493999 -0.46332889 13.71484375 1.06640625 C15.69489406 4.04550929 15.28442175 6.66600966 15.1875 10.1875 C15.16042969 11.45980469 15.13335937 12.73210937 15.10546875 14.04296875 C15.07066406 15.01878906 15.03585937 15.99460938 15 17 C14.01 17 13.02 17 12 17 C11.93941406 16.14535156 11.87882812 15.29070312 11.81640625 14.41015625 C11.73261719 13.30542969 11.64882813 12.20070312 11.5625 11.0625 C11.48128906 9.96035156 11.40007812 8.85820312 11.31640625 7.72265625 C11.29581916 5.08890097 11.29581916 5.08890097 10 4 C8.35 4 6.7 4 5 4 C4.34 8.29 3.68 12.58 3 17 C2.01 17 1.02 17 0 17 C0 11.39 0 5.78 0 0 Z " fill="#626161" transform="translate(395,191)"/>
<path d="M0 0 C0.70125 0.01417969 1.4025 0.02835938 2.125 0.04296875 C3.176875 0.05263672 3.176875 0.05263672 4.25 0.0625 C6.125 0.23046875 6.125 0.23046875 8.125 1.23046875 C7.795 2.22046875 7.465 3.21046875 7.125 4.23046875 C4.485 3.90046875 1.845 3.57046875 -0.875 3.23046875 C-0.875 4.22046875 -0.875 5.21046875 -0.875 6.23046875 C0.053125 6.35421875 0.98125 6.47796875 1.9375 6.60546875 C5.125 7.23046875 5.125 7.23046875 8.125 9.23046875 C8.4375 12.23046875 8.4375 12.23046875 8.125 15.23046875 C5.51795102 17.83751773 3.65161759 17.46952208 0.09765625 17.49609375 C-1.875 17.23046875 -1.875 17.23046875 -4.875 15.23046875 C-4.545 14.24046875 -4.215 13.25046875 -3.875 12.23046875 C-2.204375 12.72546875 -2.204375 12.72546875 -0.5 13.23046875 C2.81959717 14.31911175 2.81959717 14.31911175 5.125 14.23046875 C5.125 13.24046875 5.125 12.25046875 5.125 11.23046875 C2.155 10.24046875 -0.815 9.25046875 -3.875 8.23046875 C-4 5.35546875 -4 5.35546875 -3.875 2.23046875 C-1.875 0.23046875 -1.875 0.23046875 0 0 Z " fill="#626161" transform="translate(762.875,190.76953125)"/>
<path d="M0 0 C0.70125 0.01417969 1.4025 0.02835938 2.125 0.04296875 C3.176875 0.05263672 3.176875 0.05263672 4.25 0.0625 C6.125 0.23046875 6.125 0.23046875 8.125 1.23046875 C7.795 2.22046875 7.465 3.21046875 7.125 4.23046875 C4.485 3.90046875 1.845 3.57046875 -0.875 3.23046875 C-0.875 4.22046875 -0.875 5.21046875 -0.875 6.23046875 C0.053125 6.35421875 0.98125 6.47796875 1.9375 6.60546875 C5.125 7.23046875 5.125 7.23046875 8.125 9.23046875 C8.4375 12.23046875 8.4375 12.23046875 8.125 15.23046875 C5.51795102 17.83751773 3.65161759 17.46952208 0.09765625 17.49609375 C-1.875 17.23046875 -1.875 17.23046875 -4.875 15.23046875 C-4.545 14.24046875 -4.215 13.25046875 -3.875 12.23046875 C-2.204375 12.72546875 -2.204375 12.72546875 -0.5 13.23046875 C2.81959717 14.31911175 2.81959717 14.31911175 5.125 14.23046875 C5.125 13.24046875 5.125 12.25046875 5.125 11.23046875 C2.155 10.24046875 -0.815 9.25046875 -3.875 8.23046875 C-4 5.35546875 -4 5.35546875 -3.875 2.23046875 C-1.875 0.23046875 -1.875 0.23046875 0 0 Z " fill="#626161" transform="translate(467.875,190.76953125)"/>
<path d="M0 0 C5.94 0 11.88 0 18 0 C18 0.99 18 1.98 18 3 C15.69 3 13.38 3 11 3 C11 9.6 11 16.2 11 23 C10.01 23 9.02 23 8 23 C8 16.4 8 9.8 8 3 C5.36 3 2.72 3 0 3 C0 2.01 0 1.02 0 0 Z " fill="#626161" transform="translate(345,185)"/>
<path d="M0 0 C0.99 0 1.98 0 3 0 C3 6.6 3 13.2 3 20 C6.96 20 10.92 20 15 20 C15 20.99 15 21.98 15 23 C10.05 23 5.1 23 0 23 C0 15.41 0 7.82 0 0 Z " fill="#626161" transform="translate(650,185)"/>
<path d="M0 0 C1.32 0.33 2.64 0.66 4 1 C6.00946222 0.72949547 8.01354224 0.40632091 10 0 C10 0.99 10 1.98 10 3 C9.21625 3.33 8.4325 3.66 7.625 4 C3.79778365 6.91597436 3.9127795 10.09400919 3.26171875 14.69921875 C3.17535156 15.45847656 3.08898437 16.21773437 3 17 C2.01 17 1.02 17 0 17 C0 11.39 0 5.78 0 0 Z " fill="#626161" transform="translate(746,191)"/>
<path d="M0 0 C1.32 0.33 2.64 0.66 4 1 C6.00946222 0.72949547 8.01354224 0.40632091 10 0 C10 0.99 10 1.98 10 3 C9.21625 3.33 8.4325 3.66 7.625 4 C3.79778365 6.91597436 3.9127795 10.09400919 3.26171875 14.69921875 C3.17535156 15.45847656 3.08898437 16.21773437 3 17 C2.01 17 1.02 17 0 17 C0 11.39 0 5.78 0 0 Z " fill="#626161" transform="translate(451,191)"/>
<path d="M0 0 C0.99 0 1.98 0 3 0 C3 7.92 3 15.84 3 24 C2.01 24 1.02 24 0 24 C0 16.08 0 8.16 0 0 Z " fill="#626161" transform="translate(329,184)"/>
<path d="M0 0 C0.99 0 1.98 0 3 0 C3 7.92 3 15.84 3 24 C2.01 24 1.02 24 0 24 C0 16.08 0 8.16 0 0 Z " fill="#626161" transform="translate(261,184)"/>
<path d="M0 0 C2.97 0 5.94 0 9 0 C9 2.64 9 5.28 9 8 C6.03 8 3.06 8 0 8 C0 5.36 0 2.72 0 0 Z " fill="#030405" transform="translate(483,108)"/>
<path d="M0 0 C2.97 0 5.94 0 9 0 C9 2.64 9 5.28 9 8 C6.03 8 3.06 8 0 8 C0 5.36 0 2.72 0 0 Z " fill="#030405" transform="translate(324,108)"/>
<path d="M0 0 C0.99 0 1.98 0 3 0 C3 5.61 3 11.22 3 17 C2.01 17 1.02 17 0 17 C0 11.39 0 5.78 0 0 Z " fill="#626161" transform="translate(387,191)"/>
<path d="M0 0 C0.99 0 1.98 0 3 0 C3 1.32 3 2.64 3 4 C2.01 4 1.02 4 0 4 C0 2.68 0 1.36 0 0 Z " fill="#626161" transform="translate(775,204)"/>
<path d="M0 0 C0.99 0 1.98 0 3 0 C3 1.32 3 2.64 3 4 C2.01 4 1.02 4 0 4 C0 2.68 0 1.36 0 0 Z " fill="#626161" transform="translate(480,204)"/>
<path d="M0 0 C0.99 0 1.98 0 3 0 C3 0.99 3 1.98 3 3 C2.01 3 1.02 3 0 3 C0 2.01 0 1.02 0 0 Z " fill="#626161" transform="translate(387,185)"/>
</svg>
